<?xml version="1.0" encoding="UTF-8" standalone="no"?>
<!-- Created with Inkscape (http://www.inkscape.org/) -->

<svg
   width="64.0px"
   height="64.0px"
   viewBox="0 0 64.0 64.0"
   version="1.1"
   id="SVGRoot"
   sodipodi:docname="download.svg"
   inkscape:export-filename="download.png"
   inkscape:export-xdpi="96"
   inkscape:export-ydpi="96"
   inkscape:version="1.2.2 (b0a8486541, 2022-12-01)"
   xmlns:inkscape="http://www.inkscape.org/namespaces/inkscape"
   xmlns:sodipodi="http://sodipodi.sourceforge.net/DTD/sodipodi-0.dtd"
   xmlns="http://www.w3.org/2000/svg"
   xmlns:svg="http://www.w3.org/2000/svg">
  <sodipodi:namedview
     id="namedview137"
     pagecolor="#505050"
     bordercolor="#ffffff"
     borderopacity="1"
     inkscape:showpageshadow="0"
     inkscape:pageopacity="0"
     inkscape:pagecheckerboard="1"
     inkscape:deskcolor="#505050"
     inkscape:document-units="px"
     showgrid="true"
     inkscape:zoom="8"
     inkscape:cx="46.3125"
     inkscape:cy="46.875"
     inkscape:window-width="1920"
     inkscape:window-height="1017"
     inkscape:window-x="-8"
     inkscape:window-y="-8"
     inkscape:window-maximized="1"
     inkscape:current-layer="layer1"
     showguides="false" />
  <defs
     id="defs132" />
  <g
     inkscape:label="Layer 1"
     inkscape:groupmode="layer"
     id="layer1">
    <path
       style="color:#000000;fill:#ffffff;fill-rule:evenodd;stroke-linecap:round;stroke-linejoin:round;-inkscape-stroke:none"
       d="m 57.417969,34.527344 a 1.889765,1.889765 0 0 0 -1.890625,1.888672 V 55.632812 H 8.4726563 V 36.564453 A 1.889765,1.889765 0 0 0 6.5820312,34.675781 1.889765,1.889765 0 0 0 4.6933594,36.564453 v 20.958984 a 1.889954,1.889954 0 0 0 1.8886718,1.888672 H 57.417969 a 1.889954,1.889954 0 0 0 1.888672,-1.888672 V 36.416016 a 1.889765,1.889765 0 0 0 -1.888672,-1.888672 z"
       id="path1480" />
    <path
       id="path1484"
       style="color:#000000;fill:#ffffff;fill-rule:evenodd;stroke-linecap:round;stroke-linejoin:round;-inkscape-stroke:none"
       d="m 31.851563,2.2714844 a 1.889765,1.889765 0 0 0 -1.890625,1.890625 V 45.341797 l -9.072266,-9.072266 a 1.889765,1.889765 0 0 0 -2.673828,0 1.889765,1.889765 0 0 0 0,2.671875 l 12.263672,12.263672 a 1.889954,1.889954 0 0 0 2.671875,0 L 45.785157,38.570312 a 1.889765,1.889765 0 0 0 0,-2.671874 1.889765,1.889765 0 0 0 -1.335938,-0.554688 1.889765,1.889765 0 0 0 -1.335937,0.554688 l -9.371094,9.36914 V 4.1621094 a 1.889765,1.889765 0 0 0 -1.890625,-1.890625 z" />
  </g>
</svg>
